<?xml version="1.0" standalone="no"?>
<svg version="1.0" xmlns="http://www.w3.org/2000/svg"
 width="2338.000000pt" height="2338.000000pt" viewBox="0 0 2338.000000 2338.000000"
 preserveAspectRatio="xMidYMid meet">

<g transform="translate(0.000000,2338.000000) scale(0.100000,-0.100000)"
fill="#000000" stroke="none">
<path d="M11478 23365 c-648 -89 -1165 -574 -1310 -1228 l-23 -102 0 -1650 c0
-1557 1 -1655 18 -1740 98 -481 405 -887 832 -1099 128 -64 248 -106 395 -137
89 -19 135 -23 300 -23 165 0 211 4 300 23 315 67 576 207 795 426 221 221
368 498 432 810 17 85 18 183 18 1740 l0 1650 -23 102 c-179 811 -924 1338
-1734 1228z"/>
<path d="M6395 22004 c-339 -53 -630 -200 -870 -439 -445 -446 -578 -1121
-333 -1697 43 -101 1498 -2635 1598 -2783 224 -331 568 -558 980 -646 152 -33
448 -33 600 0 629 134 1088 594 1221 1221 31 143 33 426 5 575 -22 118 -71
274 -119 377 -31 67 -1489 2599 -1562 2713 -195 305 -539 551 -900 644 -195
50 -434 64 -620 35z"/>
<path d="M2699 18296 c-660 -95 -1168 -575 -1310 -1236 -33 -152 -33 -448 0
-600 47 -220 117 -387 238 -570 94 -141 257 -308 388 -396 161 -109 2693
-1565 2803 -1612 183 -77 403 -122 602 -122 776 2 1433 578 1535 1347 52 389
-45 778 -275 1105 -79 113 -237 273 -346 350 -90 64 -2595 1515 -2744 1589
-116 57 -246 102 -383 130 -132 27 -373 34 -508 15z"/>
<path d="M1338 13225 c-431 -59 -827 -307 -1070 -669 -521 -779 -246 -1830
589 -2250 165 -82 310 -127 490 -151 160 -22 3146 -22 3306 0 663 88 1187 584
1319 1248 32 160 32 414 0 574 -118 591 -543 1051 -1119 1209 -199 54 -179 54
-1863 53 -1229 -1 -1575 -4 -1652 -14z"/>
<path d="M5275 9613 c-163 -14 -389 -79 -539 -155 -143 -72 -2658 -1528 -2740
-1587 -105 -74 -266 -236 -343 -344 -125 -177 -222 -403 -265 -620 -29 -148
-31 -413 -4 -557 80 -416 320 -784 659 -1011 227 -152 462 -235 739 -261 267
-25 569 32 808 152 104 53 2625 1509 2708 1564 266 180 484 469 587 780 155
468 90 952 -186 1367 -87 130 -282 324 -415 412 -301 199 -658 291 -1009 260z"/>
<path d="M7923 6959 c-253 -24 -505 -115 -724 -260 -114 -76 -321 -280 -395
-389 -89 -131 -1565 -2698 -1605 -2790 -137 -317 -162 -693 -68 -1029 142
-507 552 -921 1059 -1066 443 -128 905 -56 1295 202 120 80 325 280 402 393
70 103 1537 2645 1584 2745 184 390 194 838 28 1244 -168 410 -525 742 -949
880 -122 40 -213 58 -347 71 -120 11 -159 11 -280 -1z"/>
</g>
</svg>

